<svg xmlns="http://www.w3.org/2000/svg" width="40" height="40" viewBox="0 0 40 40">
  <defs>
    <style>
      .cls-1, .cls-2 {
        fill: #0070b8;
      }

      .cls-1 {
        opacity: 0.25;
      }

      .cls-3 {
        fill: none;
      }
    </style>
  </defs>
  <g id="icon-noticias" transform="translate(-1282.1 228)">
    <circle id="Ellipse_3" data-name="Ellipse 3" class="cls-1" cx="16" cy="16" r="16" transform="translate(1282.1 -228)"/>
    <path id="Path_4453" data-name="Path 4453" class="cls-2" d="M32,8V22a3.811,3.811,0,0,1-.32,1.555,4.052,4.052,0,0,1-2.133,2.125A3.828,3.828,0,0,1,28,26H3.891a3.706,3.706,0,0,1-1.508-.312,3.944,3.944,0,0,1-2.07-2.07A3.706,3.706,0,0,1,0,22.109V4H28V8Zm-2,2H28V21a1,1,0,0,1-2,0V6H2V22.109a1.832,1.832,0,0,0,.148.734,1.908,1.908,0,0,0,1.008,1.008A1.832,1.832,0,0,0,3.891,24H28a1.938,1.938,0,0,0,.781-.156,2.037,2.037,0,0,0,1.063-1.062A1.938,1.938,0,0,0,30,22Zm-6,0H4V8H24Zm0,12H16V20h8Zm0-4H16V16h8Zm0-4H16V12h8ZM14,22H4V11.953H14ZM6,20h6V13.953H6Z" transform="translate(1290.099 -220)"/>
    <rect id="Rectangle_1566" data-name="Rectangle 1566" class="cls-3" width="40" height="40" transform="translate(1282.1 -228)"/>
  </g>
</svg>
