<svg xmlns="http://www.w3.org/2000/svg" width="40" height="40" viewBox="0 0 40 40">
  <defs>
    <style>
      .cls-1, .cls-2 {
        fill: #0070b8;
      }

      .cls-1 {
        opacity: 0.25;
      }

      .cls-3 {
        fill: none;
      }
    </style>
  </defs>
  <g id="icon-matricula" transform="translate(-1282.1 228)">
    <circle id="Ellipse_3" data-name="Ellipse 3" class="cls-1" cx="16" cy="16" r="16" transform="translate(1282.1 -228)"/>
    <path id="Path_4447" data-name="Path 4447" class="cls-2" d="M24.5,6A1.494,1.494,0,0,1,26,7.5v23A1.494,1.494,0,0,1,24.5,32H7.5A1.494,1.494,0,0,1,6,30.5V7.5A1.494,1.494,0,0,1,7.5,6h4.875l-3-6h2.25l3,6h2.75l3-6h2.25l-3,6ZM24,8H15.625l1.266,2.547A1.145,1.145,0,0,1,17,11a1.014,1.014,0,0,1-1,1,.984.984,0,0,1-.523-.148.966.966,0,0,1-.367-.4L13.375,8H8V30H24ZM12,18a3.893,3.893,0,0,1,.313-1.555,4.031,4.031,0,0,1,2.133-2.133,4.024,4.024,0,0,1,3.109,0,4.031,4.031,0,0,1,2.133,2.133A3.893,3.893,0,0,1,20,18a3.943,3.943,0,0,1-.289,1.484,4,4,0,0,1-.8,1.266A5.7,5.7,0,0,1,20.2,21.7a5.913,5.913,0,0,1,.969,1.25,6.346,6.346,0,0,1,.617,1.461A5.8,5.8,0,0,1,22,26H20a3.893,3.893,0,0,0-.312-1.555,4.031,4.031,0,0,0-2.133-2.133,4.024,4.024,0,0,0-3.109,0,4.031,4.031,0,0,0-2.133,2.133A3.893,3.893,0,0,0,12,26H10a5.8,5.8,0,0,1,.219-1.586,6.346,6.346,0,0,1,.617-1.461A5.913,5.913,0,0,1,11.8,21.7a5.7,5.7,0,0,1,1.289-.953,4,4,0,0,1-.8-1.266A3.943,3.943,0,0,1,12,18Zm6,0a1.938,1.938,0,0,0-.156-.781,2.037,2.037,0,0,0-1.062-1.062,2.031,2.031,0,0,0-1.562,0,2.037,2.037,0,0,0-1.062,1.063,2.031,2.031,0,0,0,0,1.563,2.037,2.037,0,0,0,1.063,1.063,2.031,2.031,0,0,0,1.563,0,2.037,2.037,0,0,0,1.063-1.062A1.938,1.938,0,0,0,18,18Z" transform="translate(1290.099 -220)"/>
    <rect id="Rectangle_1563" data-name="Rectangle 1563" class="cls-3" width="40" height="40" transform="translate(1282.1 -228)"/>
  </g>
</svg>
