<svg xmlns="http://www.w3.org/2000/svg" width="40" height="40" viewBox="0 0 40 40">
  <defs>
    <style>
      .cls-1, .cls-2 {
        fill: #0070b8;
      }

      .cls-1 {
        opacity: 0.25;
      }

      .cls-3 {
        fill: none;
      }
    </style>
  </defs>
  <g id="icon-calendario" transform="translate(-1282.1 228)">
    <circle id="Ellipse_3" data-name="Ellipse 3" class="cls-1" cx="16" cy="16" r="16" transform="translate(1282.1 -228)"/>
    <path id="Path_4452" data-name="Path 4452" class="cls-2" d="M12,12h2v2H12Zm6,12h2v2H18Zm6-12h2v2H24Zm-6,0h2v2H18Zm-6,4h2v2H12ZM6,16H8v2H6Zm18,0h2v2H24Zm-6,0h2v2H18Zm-6,4h2v2H12ZM6,20H8v2H6Zm18,0h2v2H24Zm-6,0h2v2H18Zm-6,4h2v2H12ZM6,24H8v2H6ZM32,2V30H0V2H6V0H8V2H24V0h2V2ZM2,4V8H30V4H26V6H24V4H8V6H6V4ZM30,28V10H2V28Z" transform="translate(1290.099 -220)"/>
    <rect id="Rectangle_1565" data-name="Rectangle 1565" class="cls-3" width="40" height="40" transform="translate(1282.1 -228)"/>
  </g>
</svg>
