<svg xmlns="http://www.w3.org/2000/svg" width="40" height="40" viewBox="0 0 40 40">
  <defs>
    <style>
      .cls-1, .cls-2 {
        fill: #0070b8;
      }

      .cls-1 {
        opacity: 0.25;
      }

      .cls-3 {
        fill: none;
      }
    </style>
  </defs>
  <g id="icon-ramais" transform="translate(-1282.1 228)">
    <circle id="Ellipse_3" data-name="Ellipse 3" class="cls-1" cx="16" cy="16" r="16" transform="translate(1282.1 -228)"/>
    <path id="Path_4446" data-name="Path 4446" class="cls-2" d="M25.109,18.953a3.467,3.467,0,0,1,1.32.258,3.355,3.355,0,0,1,1.117.742l3.438,3.438a3.355,3.355,0,0,1,.742,1.117,3.51,3.51,0,0,1,0,2.641,3.355,3.355,0,0,1-.742,1.117l-.219.219q-.844.844-1.547,1.5a8.194,8.194,0,0,1-1.469,1.1,6.505,6.505,0,0,1-1.7.68A9.31,9.31,0,0,1,23.813,32a14.139,14.139,0,0,1-4.016-.609A22.279,22.279,0,0,1,15.7,29.7a29.407,29.407,0,0,1-4-2.562,34.668,34.668,0,0,1-3.7-3.242A35.571,35.571,0,0,1,4.781,20.18a29.136,29.136,0,0,1-2.531-4,22.434,22.434,0,0,1-1.656-4.07A14.008,14.008,0,0,1,0,8.172,9.414,9.414,0,0,1,.227,5.953,6.35,6.35,0,0,1,.9,4.266,8.157,8.157,0,0,1,1.992,2.8q.648-.7,1.492-1.539l.25-.25A3.481,3.481,0,0,1,4.844.266a3.434,3.434,0,0,1,2.648,0,3.458,3.458,0,0,1,1.117.75l3.438,3.438a3.355,3.355,0,0,1,.742,1.117,3.467,3.467,0,0,1,.258,1.32,3.049,3.049,0,0,1-.234,1.227,4.432,4.432,0,0,1-.578.977,5.783,5.783,0,0,1-.758.8q-.414.359-.758.7a4.594,4.594,0,0,0-.578.7,1.34,1.34,0,0,0-.234.758,1.384,1.384,0,0,0,.422,1.016l8.609,8.609a1.384,1.384,0,0,0,1.016.422,1.34,1.34,0,0,0,.758-.234,4.594,4.594,0,0,0,.7-.578q.344-.344.7-.758a5.783,5.783,0,0,1,.8-.758,4.432,4.432,0,0,1,.977-.578A3.049,3.049,0,0,1,25.109,18.953ZM23.813,30a7.138,7.138,0,0,0,1.883-.211,4.862,4.862,0,0,0,1.367-.609,7.06,7.06,0,0,0,1.188-.992q.578-.594,1.328-1.344A1.384,1.384,0,0,0,30,25.828a1.359,1.359,0,0,0-.227-.664,5.865,5.865,0,0,0-.586-.8q-.359-.422-.8-.867t-.875-.844q-.43-.4-.8-.734t-.57-.539a1.4,1.4,0,0,0-1.031-.422,1.3,1.3,0,0,0-.75.234,4.823,4.823,0,0,0-.687.578q-.344.344-.711.758a6.159,6.159,0,0,1-.8.758,4.432,4.432,0,0,1-.977.578,3.049,3.049,0,0,1-1.227.234,3.467,3.467,0,0,1-1.32-.258,3.355,3.355,0,0,1-1.117-.742L8.906,14.484a3.355,3.355,0,0,1-.742-1.117,3.467,3.467,0,0,1-.258-1.32,3.049,3.049,0,0,1,.234-1.227,4.432,4.432,0,0,1,.578-.977,6.159,6.159,0,0,1,.758-.8q.414-.367.758-.711a4.823,4.823,0,0,0,.578-.687,1.3,1.3,0,0,0,.234-.75,1.4,1.4,0,0,0-.422-1.031q-.2-.2-.539-.57t-.734-.8q-.4-.43-.844-.875t-.867-.8a5.865,5.865,0,0,0-.8-.586A1.359,1.359,0,0,0,6.172,2a1.384,1.384,0,0,0-1.016.422q-.75.75-1.336,1.328a7.962,7.962,0,0,0-1,1.188A4.614,4.614,0,0,0,2.2,6.3a7.067,7.067,0,0,0-.211,1.867,12.282,12.282,0,0,0,.57,3.609A20.3,20.3,0,0,0,4.133,15.5a28.323,28.323,0,0,0,2.383,3.664,32.648,32.648,0,0,0,3,3.414,33.591,33.591,0,0,0,3.43,2.969A28.307,28.307,0,0,0,16.6,27.9a20.158,20.158,0,0,0,3.688,1.547A12.173,12.173,0,0,0,23.813,30Z" transform="translate(1290.099 -220)"/>
    <rect id="Rectangle_1562" data-name="Rectangle 1562" class="cls-3" width="40" height="40" transform="translate(1282.1 -228)"/>
  </g>
</svg>
