<svg xmlns="http://www.w3.org/2000/svg" width="40" height="40" viewBox="0 0 40 40">
  <defs>
    <style>
      .cls-1, .cls-2 {
        fill: #0070b8;
      }

      .cls-1 {
        opacity: 0.25;
      }

      .cls-3 {
        fill: none;
      }
    </style>
  </defs>
  <g id="icon-aniversariante" transform="translate(-1283 228)">
    <circle id="Ellipse_3" data-name="Ellipse 3" class="cls-1" cx="16" cy="16" r="16" transform="translate(1283 -228)"/>
    <path id="Path_4445" data-name="Path 4445" class="cls-2" d="M19,4a.961.961,0,0,1-.7-.3A.961.961,0,0,1,18,3a1.322,1.322,0,0,1,.125-.484q.125-.3.289-.625t.328-.625L19,.8l.258.469q.164.3.328.625t.289.625A1.322,1.322,0,0,1,20,3a.961.961,0,0,1-.3.7A.961.961,0,0,1,19,4ZM32,14V32H0V14L18,8V5.5a.311.311,0,0,1,.117-.242A.819.819,0,0,1,18.4,5.1a1.875,1.875,0,0,1,.328-.078,1.607,1.607,0,0,1,.547,0A1.875,1.875,0,0,1,19.6,5.1a.819.819,0,0,1,.281.156A.311.311,0,0,1,20,5.5V7.328L24,6ZM19,12a2,2,0,0,1-.273-.023A1.875,1.875,0,0,1,18.4,11.9a.819.819,0,0,1-.281-.156A.311.311,0,0,1,18,11.5V10.109L6.328,14H29.172L23.453,8.281,20,9.438V11.5a.311.311,0,0,1-.117.242.819.819,0,0,1-.281.156,1.875,1.875,0,0,1-.328.078A2,2,0,0,1,19,12ZM2,16v6H30V16ZM30,30V24H2v6Z" transform="translate(1291 -220)"/>
    <rect id="Rectangle_1561" data-name="Rectangle 1561" class="cls-3" width="40" height="40" transform="translate(1283 -228)"/>
  </g>
</svg>
