<svg xmlns="http://www.w3.org/2000/svg" width="40" height="40" viewBox="0 0 40 40">
  <defs>
    <style>
      .cls-1, .cls-2 {
        fill: #0070b8;
      }

      .cls-1 {
        opacity: 0.25;
      }

      .cls-3 {
        fill: none;
      }
    </style>
  </defs>
  <g id="icon-cardapio" transform="translate(-1283 228)">
    <circle id="Ellipse_3" data-name="Ellipse 3" class="cls-1" cx="16.198" cy="16.198" r="16.198" transform="translate(1283 -228)"/>
    <path id="Path_4451" data-name="Path 4451" class="cls-2" d="M14.531-31a.931.931,0,0,1,.681.288.931.931,0,0,1,.288.681v10.656a3.692,3.692,0,0,1-.31,1.506,3.994,3.994,0,0,1-.833,1.226,3.969,3.969,0,0,1-1.234.833,3.708,3.708,0,0,1-1.5.31V-.969a.931.931,0,0,1-.288.681A.931.931,0,0,1,10.656,0a.931.931,0,0,1-.681-.288.931.931,0,0,1-.288-.681V-15.5a3.692,3.692,0,0,1-1.506-.31,3.994,3.994,0,0,1-1.226-.833,3.994,3.994,0,0,1-.833-1.226,3.692,3.692,0,0,1-.31-1.506V-30.031a.931.931,0,0,1,.288-.681A.931.931,0,0,1,6.781-31a.931.931,0,0,1,.681.288.931.931,0,0,1,.288.681v10.656a1.877,1.877,0,0,0,.151.757,1.969,1.969,0,0,0,.416.613,1.969,1.969,0,0,0,.613.416,1.877,1.877,0,0,0,.757.151V-30.031a.931.931,0,0,1,.288-.681A.931.931,0,0,1,10.656-31a.931.931,0,0,1,.681.288.931.931,0,0,1,.288.681v12.594a1.877,1.877,0,0,0,.757-.151,1.969,1.969,0,0,0,.613-.416,1.969,1.969,0,0,0,.416-.613,1.877,1.877,0,0,0,.151-.757V-30.031a.931.931,0,0,1,.288-.681A.931.931,0,0,1,14.531-31Zm10.656,0V-.969a.931.931,0,0,1-.288.681A.931.931,0,0,1,24.219,0a.931.931,0,0,1-.681-.288.931.931,0,0,1-.288-.681V-9.687q-.56,0-1.211.015T20.745-9.7A7.075,7.075,0,0,1,19.5-9.877a3.061,3.061,0,0,1-1.06-.469,2.315,2.315,0,0,1-.734-.863,3.062,3.062,0,0,1-.272-1.385V-24.219a6.542,6.542,0,0,1,.537-2.641,6.908,6.908,0,0,1,1.453-2.149,6.908,6.908,0,0,1,2.149-1.453A6.542,6.542,0,0,1,24.219-31ZM23.25-28.972a4.481,4.481,0,0,0-1.552.613,5.136,5.136,0,0,0-1.226,1.082,4.868,4.868,0,0,0-.81,1.415,4.707,4.707,0,0,0-.288,1.642v11.625a.931.931,0,0,0,.288.681.931.931,0,0,0,.681.288H23.25Z" transform="translate(1292 -189)"/>
    <rect id="Rectangle_1564" data-name="Rectangle 1564" class="cls-3" width="40" height="40" transform="translate(1283 -228)"/>
  </g>
</svg>
