<svg xmlns="http://www.w3.org/2000/svg" width="64" height="64" viewBox="0 0 64 64">
  <defs>
    <style>
      .cls-1 {
        fill: #a0d71e;
      }

      .cls-2 {
        fill: #0070b8;
      }

      .cls-3 {
        fill: none;
      }
    </style>
  </defs>
  <g id="canal-de-etica" transform="translate(-1283 228)">
    <circle id="Ellipse_3" data-name="Ellipse 3" class="cls-1" cx="25.6" cy="25.6" r="25.6" transform="translate(1283 -228)"/>
    <path id="Path_4438" data-name="Path 4438" class="cls-2" d="M43.878-11.405a12.1,12.1,0,0,1,2.951,2A13.313,13.313,0,0,1,49.07-6.711,12.537,12.537,0,0,1,50.5-3.524,12.508,12.508,0,0,1,51,0H47.813a9.188,9.188,0,0,0-.76-3.71A9.768,9.768,0,0,0,45-6.749,9.768,9.768,0,0,0,41.96-8.8a9.188,9.188,0,0,0-3.71-.76,9.188,9.188,0,0,0-3.71.76A9.768,9.768,0,0,0,31.5-6.749,9.768,9.768,0,0,0,29.447-3.71,9.188,9.188,0,0,0,28.688,0H25.5A12.508,12.508,0,0,1,26-3.524,12.537,12.537,0,0,1,27.43-6.711,13.313,13.313,0,0,1,29.671-9.4a12.1,12.1,0,0,1,2.951-2,9.311,9.311,0,0,1-2.9-3.374,9.442,9.442,0,0,1-1.033-4.345,9.319,9.319,0,0,1,.747-3.71,9.638,9.638,0,0,1,2.054-3.051,9.677,9.677,0,0,1,3.038-2.054,9.292,9.292,0,0,1,3.723-.747,9.319,9.319,0,0,1,3.71.747,9.638,9.638,0,0,1,3.051,2.054,9.638,9.638,0,0,1,2.054,3.051,9.319,9.319,0,0,1,.747,3.71,9.442,9.442,0,0,1-1.033,4.345A9.311,9.311,0,0,1,43.878-11.405ZM38.25-12.75a6.2,6.2,0,0,0,2.478-.5,6.439,6.439,0,0,0,2.03-1.37,6.439,6.439,0,0,0,1.37-2.03,6.2,6.2,0,0,0,.5-2.478,6.2,6.2,0,0,0-.5-2.478,6.439,6.439,0,0,0-1.37-2.03A6.439,6.439,0,0,0,40.728-25a6.2,6.2,0,0,0-2.478-.5,6.2,6.2,0,0,0-2.478.5,6.439,6.439,0,0,0-2.03,1.37,6.439,6.439,0,0,0-1.37,2.03,6.2,6.2,0,0,0-.5,2.478,6.2,6.2,0,0,0,.5,2.478,6.439,6.439,0,0,0,1.37,2.03,6.439,6.439,0,0,0,2.03,1.37A6.2,6.2,0,0,0,38.25-12.75ZM51-47.812v25.5a8.684,8.684,0,0,0-.224-2.092,7.307,7.307,0,0,0-.635-1.668,9.357,9.357,0,0,0-1-1.494q-.585-.722-1.332-1.569V-44.625H3.188v28.688H9.563v6.649l6.649-6.649h9.712a10.275,10.275,0,0,0,.535,1.644,14.787,14.787,0,0,0,.76,1.544H17.531L6.375-1.594V-12.75H0V-47.812Z" transform="translate(1295.8 -165)"/>
    <rect id="Rectangle_1554" data-name="Rectangle 1554" class="cls-3" width="64" height="64" transform="translate(1283 -228)"/>
  </g>
</svg>
