<svg xmlns="http://www.w3.org/2000/svg" width="64" height="64" viewBox="0 0 64 64">
  <defs>
    <style>
      .cls-1 {
        fill: #a0d71e;
      }

      .cls-2 {
        fill: #0070b8;
      }

      .cls-3 {
        fill: none;
      }
    </style>
  </defs>
  <g id="costa-brava" transform="translate(-1283 228)">
    <circle id="Ellipse_3" data-name="Ellipse 3" class="cls-1" cx="25.6" cy="25.6" r="25.6" transform="translate(1283 -228)"/>
    <path id="Path_4429" data-name="Path 4429" class="cls-2" d="M46.219-41.437a4.691,4.691,0,0,1,1.868.374,4.8,4.8,0,0,1,1.519,1.021,4.8,4.8,0,0,1,1.021,1.519A4.691,4.691,0,0,1,51-36.656V-7.969A4.691,4.691,0,0,1,50.626-6.1a4.8,4.8,0,0,1-1.021,1.519,4.8,4.8,0,0,1-1.519,1.021,4.691,4.691,0,0,1-1.868.374H4.781a4.691,4.691,0,0,1-1.868-.374A4.8,4.8,0,0,1,1.395-4.582,4.8,4.8,0,0,1,.374-6.1,4.691,4.691,0,0,1,0-7.969V-36.656a4.691,4.691,0,0,1,.374-1.868,4.8,4.8,0,0,1,1.021-1.519,4.8,4.8,0,0,1,1.519-1.021,4.691,4.691,0,0,1,1.868-.374H15.938v-3.187a3.089,3.089,0,0,1,.249-1.245,3.239,3.239,0,0,1,.685-1.009,3.239,3.239,0,0,1,1.009-.685,3.089,3.089,0,0,1,1.245-.249h12.75a3.089,3.089,0,0,1,1.245.249,3.239,3.239,0,0,1,1.009.685,3.239,3.239,0,0,1,.685,1.009,3.089,3.089,0,0,1,.249,1.245v3.188Zm-27.094,0h12.75v-3.187H19.125ZM12.75-38.25V-6.375h25.5V-38.25ZM3.188-7.969a1.532,1.532,0,0,0,.473,1.121,1.532,1.532,0,0,0,1.121.473H9.563V-38.25H4.781a1.532,1.532,0,0,0-1.121.473,1.532,1.532,0,0,0-.473,1.121ZM47.813-36.656a1.532,1.532,0,0,0-.473-1.121,1.532,1.532,0,0,0-1.121-.473H41.438V-6.375h4.781a1.532,1.532,0,0,0,1.121-.473,1.532,1.532,0,0,0,.473-1.121Z" transform="translate(1296 -165)"/>
    <rect id="Rectangle_1545" data-name="Rectangle 1545" class="cls-3" width="64" height="64" transform="translate(1283 -228)"/>
  </g>
</svg>
