<svg xmlns="http://www.w3.org/2000/svg" width="64" height="64" viewBox="0 0 64 64">
  <defs>
    <style>
      .cls-1 {
        fill: #a0d71e;
      }

      .cls-2 {
        fill: #0070b8;
      }

      .cls-3 {
        fill: none;
      }
    </style>
  </defs>
  <g id="portal-gente" transform="translate(-1283 228)">
    <circle id="Ellipse_3" data-name="Ellipse 3" class="cls-1" cx="25.6" cy="25.6" r="25.6" transform="translate(1283 -228)"/>
    <path id="Path_4432" data-name="Path 4432" class="cls-2" d="M46.069-33.867a9.387,9.387,0,0,1,2.042,1.531,9.638,9.638,0,0,1,1.556,1.992,9.871,9.871,0,0,1,.984,2.316A9.243,9.243,0,0,1,51-25.5H47.813a6.1,6.1,0,0,0-.51-2.465,6.529,6.529,0,0,0-1.37-2.03,6.529,6.529,0,0,0-2.03-1.37,6.1,6.1,0,0,0-2.465-.51,6.073,6.073,0,0,0-2.478.51,6.57,6.57,0,0,0-2.017,1.37,6.529,6.529,0,0,0-1.37,2.03,6.1,6.1,0,0,0-.51,2.465,9.415,9.415,0,0,1-1.033,4.308,9.472,9.472,0,0,1-2.851,3.387,12.881,12.881,0,0,1,2.926,2.03,12.983,12.983,0,0,1,2.229,2.689A12.8,12.8,0,0,1,37.752-9.9a12.508,12.508,0,0,1,.5,3.524H35.063a9.188,9.188,0,0,0-.76-3.71,9.768,9.768,0,0,0-2.054-3.038,9.768,9.768,0,0,0-3.038-2.054,9.188,9.188,0,0,0-3.71-.76,9.188,9.188,0,0,0-3.71.76,9.768,9.768,0,0,0-3.038,2.054A9.768,9.768,0,0,0,16.7-10.085a9.188,9.188,0,0,0-.76,3.71H12.75a12.508,12.508,0,0,1,.5-3.524,12.8,12.8,0,0,1,1.419-3.187A12.983,12.983,0,0,1,16.9-15.776a12.881,12.881,0,0,1,2.926-2.03,9.472,9.472,0,0,1-2.851-3.387A9.415,9.415,0,0,1,15.938-25.5a6.1,6.1,0,0,0-.51-2.465,6.529,6.529,0,0,0-1.37-2.03,6.529,6.529,0,0,0-2.03-1.37,6.1,6.1,0,0,0-2.465-.51,6.073,6.073,0,0,0-2.478.51,6.57,6.57,0,0,0-2.017,1.37,6.529,6.529,0,0,0-1.37,2.03,6.1,6.1,0,0,0-.51,2.465H0a9.243,9.243,0,0,1,.349-2.528,9.871,9.871,0,0,1,.984-2.316,9.638,9.638,0,0,1,1.556-1.992,9.387,9.387,0,0,1,2.042-1.531,6.381,6.381,0,0,1-1.282-2.017,6.285,6.285,0,0,1-.461-2.366,6.1,6.1,0,0,1,.51-2.465,6.529,6.529,0,0,1,1.37-2.03,6.57,6.57,0,0,1,2.017-1.37,6.073,6.073,0,0,1,2.478-.51,6.1,6.1,0,0,1,2.465.51,6.529,6.529,0,0,1,2.03,1.37,6.529,6.529,0,0,1,1.37,2.03,6.1,6.1,0,0,1,.51,2.465,6.285,6.285,0,0,1-.461,2.366,6.381,6.381,0,0,1-1.282,2.017,9.3,9.3,0,0,1,3.337,3.088,9.7,9.7,0,0,1,3.449-3.138,9.307,9.307,0,0,1,4.52-1.146,9.307,9.307,0,0,1,4.52,1.146,9.7,9.7,0,0,1,3.449,3.138,9.3,9.3,0,0,1,3.337-3.088,6.381,6.381,0,0,1-1.282-2.017,6.285,6.285,0,0,1-.461-2.366,6.1,6.1,0,0,1,.51-2.465,6.529,6.529,0,0,1,1.37-2.03,6.57,6.57,0,0,1,2.017-1.37,6.073,6.073,0,0,1,2.478-.51,6.1,6.1,0,0,1,2.465.51,6.529,6.529,0,0,1,2.03,1.37,6.529,6.529,0,0,1,1.37,2.03,6.1,6.1,0,0,1,.51,2.465,6.285,6.285,0,0,1-.461,2.366A6.381,6.381,0,0,1,46.069-33.867ZM6.375-38.25A3.089,3.089,0,0,0,6.624-37,3.239,3.239,0,0,0,7.309-36a3.239,3.239,0,0,0,1.009.685,3.089,3.089,0,0,0,1.245.249,3.089,3.089,0,0,0,1.245-.249A3.239,3.239,0,0,0,11.816-36,3.239,3.239,0,0,0,12.5-37a3.089,3.089,0,0,0,.249-1.245A3.089,3.089,0,0,0,12.5-39.5a3.239,3.239,0,0,0-.685-1.009,3.239,3.239,0,0,0-1.009-.685,3.089,3.089,0,0,0-1.245-.249,3.089,3.089,0,0,0-1.245.249,3.239,3.239,0,0,0-1.009.685A3.239,3.239,0,0,0,6.624-39.5,3.089,3.089,0,0,0,6.375-38.25ZM25.5-19.125a6.1,6.1,0,0,0,2.465-.51,6.529,6.529,0,0,0,2.03-1.37,6.57,6.57,0,0,0,1.37-2.017,6.073,6.073,0,0,0,.51-2.478,6.1,6.1,0,0,0-.51-2.465,6.529,6.529,0,0,0-1.37-2.03,6.529,6.529,0,0,0-2.03-1.37,6.1,6.1,0,0,0-2.465-.51,6.073,6.073,0,0,0-2.478.51,6.57,6.57,0,0,0-2.017,1.37,6.529,6.529,0,0,0-1.37,2.03,6.1,6.1,0,0,0-.51,2.465,6.073,6.073,0,0,0,.51,2.478,6.57,6.57,0,0,0,1.37,2.017,6.57,6.57,0,0,0,2.017,1.37A6.073,6.073,0,0,0,25.5-19.125ZM38.25-38.25A3.089,3.089,0,0,0,38.5-37,3.239,3.239,0,0,0,39.184-36a3.239,3.239,0,0,0,1.009.685,3.089,3.089,0,0,0,1.245.249,3.089,3.089,0,0,0,1.245-.249A3.239,3.239,0,0,0,43.691-36,3.239,3.239,0,0,0,44.376-37a3.089,3.089,0,0,0,.249-1.245,3.089,3.089,0,0,0-.249-1.245,3.239,3.239,0,0,0-.685-1.009,3.239,3.239,0,0,0-1.009-.685,3.089,3.089,0,0,0-1.245-.249,3.089,3.089,0,0,0-1.245.249,3.239,3.239,0,0,0-1.009.685A3.239,3.239,0,0,0,38.5-39.5,3.089,3.089,0,0,0,38.25-38.25Z" transform="translate(1295.8 -165)"/>
    <rect id="Rectangle_1548" data-name="Rectangle 1548" class="cls-3" width="64" height="64" transform="translate(1283 -228)"/>
  </g>
</svg>
