<svg xmlns="http://www.w3.org/2000/svg" width="64" height="64" viewBox="0 0 64 64">
  <defs>
    <style>
      .cls-1 {
        fill: #a0d71e;
      }

      .cls-2 {
        fill: #0070b8;
      }

      .cls-3 {
        fill: none;
      }
    </style>
  </defs>
  <g id="portal-ydealize" transform="translate(-1283 228)">
    <circle id="Ellipse_3" data-name="Ellipse 3" class="cls-1" cx="25.6" cy="25.6" r="25.6" transform="translate(1283 -228)"/>
    <path id="Path_4442" data-name="Path 4442" class="cls-2" d="M23.906-51a17.318,17.318,0,0,1,4.657.623,17.551,17.551,0,0,1,4.2,1.768,17.533,17.533,0,0,1,3.549,2.739,17.533,17.533,0,0,1,2.739,3.549,17.551,17.551,0,0,1,1.768,4.2,17.318,17.318,0,0,1,.623,4.657,16.334,16.334,0,0,1-1.37,6.7,18.284,18.284,0,0,1-3.91,5.6,14.72,14.72,0,0,0-3.175,4.557,13.374,13.374,0,0,0-1.108,5.454v6.375A4.691,4.691,0,0,1,31.5-2.914,4.8,4.8,0,0,1,30.48-1.395,4.8,4.8,0,0,1,28.961-.374,4.691,4.691,0,0,1,27.094,0H20.719a4.691,4.691,0,0,1-1.868-.374,4.8,4.8,0,0,1-1.519-1.021,4.8,4.8,0,0,1-1.021-1.519,4.691,4.691,0,0,1-.374-1.868v-6.375a13.374,13.374,0,0,0-1.108-5.454,14.72,14.72,0,0,0-3.175-4.557,18.284,18.284,0,0,1-3.91-5.6,16.334,16.334,0,0,1-1.37-6.7A17.318,17.318,0,0,1,7-38.125a17.551,17.551,0,0,1,1.768-4.2A17.533,17.533,0,0,1,11.5-45.87a17.533,17.533,0,0,1,3.549-2.739,17.551,17.551,0,0,1,4.2-1.768A17.318,17.318,0,0,1,23.906-51ZM27.094-3.187a1.532,1.532,0,0,0,1.121-.473,1.532,1.532,0,0,0,.473-1.121V-9.562H19.125v4.781A1.532,1.532,0,0,0,19.6-3.661a1.532,1.532,0,0,0,1.121.473Zm1.668-9.562a16.481,16.481,0,0,1,1.644-5.827,19.326,19.326,0,0,1,3.561-4.881,15.484,15.484,0,0,0,3.175-4.57,13.176,13.176,0,0,0,1.108-5.441,13.877,13.877,0,0,0-1.133-5.578A14.564,14.564,0,0,0,34.042-43.6a14.564,14.564,0,0,0-4.557-3.075,13.877,13.877,0,0,0-5.578-1.133,13.877,13.877,0,0,0-5.578,1.133A14.564,14.564,0,0,0,13.771-43.6,14.564,14.564,0,0,0,10.7-39.047a13.877,13.877,0,0,0-1.133,5.578,13.176,13.176,0,0,0,1.108,5.441,15.484,15.484,0,0,0,3.175,4.57,19.326,19.326,0,0,1,3.561,4.881A16.481,16.481,0,0,1,19.05-12.75Z" transform="translate(1295.8 -165)"/>
    <rect id="Rectangle_1558" data-name="Rectangle 1558" class="cls-3" width="64" height="64" transform="translate(1283 -228)"/>
  </g>
</svg>
