<svg xmlns="http://www.w3.org/2000/svg" width="64" height="64" viewBox="0 0 64 64">
  <defs>
    <style>
      .cls-1 {
        fill: #a0d71e;
      }

      .cls-2 {
        fill: #0070b8;
      }

      .cls-3 {
        fill: none;
      }
    </style>
  </defs>
  <g id="sistema-grc" transform="translate(-1283 228)">
    <circle id="Ellipse_3" data-name="Ellipse 3" class="cls-1" cx="25.6" cy="25.6" r="25.6" transform="translate(1283 -228)"/>
    <path id="Path_4433" data-name="Path 4433" class="cls-2" d="M41.438-28.687a9.188,9.188,0,0,1,3.71.76,9.768,9.768,0,0,1,3.038,2.054,9.768,9.768,0,0,1,2.054,3.038,9.188,9.188,0,0,1,.76,3.71,9.188,9.188,0,0,1-.76,3.71,9.768,9.768,0,0,1-2.054,3.038,9.768,9.768,0,0,1-3.038,2.054,9.188,9.188,0,0,1-3.71.76,9.619,9.619,0,0,1-2.914-.448,9.016,9.016,0,0,1-2.615-1.32q-.4.4-1.332,1.382T32.423-7.707Q31.2-6.45,29.845-5.093T27.293-2.6Q26.1-1.469,25.176-.735A2.868,2.868,0,0,1,23.906,0a1.532,1.532,0,0,1-1.121-.473,1.532,1.532,0,0,1-.473-1.121,2.868,2.868,0,0,1,.735-1.27q.735-.921,1.868-2.117t2.49-2.552Q28.762-8.89,30.02-10.11t2.241-2.154q.984-.934,1.382-1.332a9.016,9.016,0,0,1-1.32-2.615,9.619,9.619,0,0,1-.448-2.914,9.188,9.188,0,0,1,.76-3.71,9.768,9.768,0,0,1,2.054-3.038,9.768,9.768,0,0,1,3.038-2.054A9.188,9.188,0,0,1,41.438-28.687Zm0,15.938a6.1,6.1,0,0,0,2.465-.51,6.529,6.529,0,0,0,2.03-1.37,6.57,6.57,0,0,0,1.37-2.017,6.073,6.073,0,0,0,.51-2.478,6.1,6.1,0,0,0-.51-2.465,6.529,6.529,0,0,0-1.37-2.03,6.529,6.529,0,0,0-2.03-1.37,6.1,6.1,0,0,0-2.465-.51,6.073,6.073,0,0,0-2.478.51,6.57,6.57,0,0,0-2.017,1.37,6.529,6.529,0,0,0-1.37,2.03,6.1,6.1,0,0,0-.51,2.465,6.073,6.073,0,0,0,.51,2.478,6.57,6.57,0,0,0,1.37,2.017,6.57,6.57,0,0,0,2.017,1.37A6.073,6.073,0,0,0,41.438-12.75ZM6.375-15.937v-6.375H0V-51H38.25v6.375h6.375v13.2q-.8-.2-1.594-.324a10.309,10.309,0,0,0-1.594-.125v-9.562H9.563v22.313H28.688a10.309,10.309,0,0,0,.125,1.594q.125.8.324,1.594Zm0-9.562V-44.625H35.063v-3.187H3.188V-25.5Z" transform="translate(1295.8 -165)"/>
    <rect id="Rectangle_1549" data-name="Rectangle 1549" class="cls-3" width="64" height="64" transform="translate(1283 -228)"/>
  </g>
</svg>
