<svg xmlns="http://www.w3.org/2000/svg" width="64" height="64" viewBox="0 0 64 64">
  <defs>
    <style>
      .cls-1 {
        fill: #a0d71e;
      }

      .cls-2 {
        fill: #0070b8;
      }

      .cls-3 {
        fill: none;
      }
    </style>
  </defs>
  <g id="syd" transform="translate(-1283 228)">
    <circle id="Ellipse_3" data-name="Ellipse 3" class="cls-1" cx="25.6" cy="25.6" r="25.6" transform="translate(1283 -228)"/>
    <path id="Path_4437" data-name="Path 4437" class="cls-2" d="M47.813-31.875a3.116,3.116,0,0,1,1.233.249,3.2,3.2,0,0,1,1.021.685,3.239,3.239,0,0,1,.685,1.009A3.027,3.027,0,0,1,51-28.712a3.192,3.192,0,0,1-.349,1.444L40.217-6.375H0V-41.437a3.089,3.089,0,0,1,.249-1.245,3.239,3.239,0,0,1,.685-1.009,3.239,3.239,0,0,1,1.009-.685,3.089,3.089,0,0,1,1.245-.249h8.766a6.931,6.931,0,0,1,1.93.237,7.182,7.182,0,0,1,1.444.585,6.782,6.782,0,0,1,1.133.772,12.064,12.064,0,0,0,1.009.772,5.772,5.772,0,0,0,1.1.585,3.6,3.6,0,0,0,1.357.237H38.25a3.089,3.089,0,0,1,1.245.249A3.239,3.239,0,0,1,40.5-40.5a3.239,3.239,0,0,1,.685,1.009,3.089,3.089,0,0,1,.249,1.245v6.375ZM3.188-14.717l7.695-15.39A3.242,3.242,0,0,1,12.065-31.4a3.116,3.116,0,0,1,1.681-.473h24.5V-38.25H19.922a6.931,6.931,0,0,1-1.93-.237,7.182,7.182,0,0,1-1.444-.585,6.782,6.782,0,0,1-1.133-.772,12.064,12.064,0,0,0-1.009-.772,5.772,5.772,0,0,0-1.1-.585,3.6,3.6,0,0,0-1.357-.237H3.188Zm44.625-13.97H13.746L4.184-9.562H38.25Z" transform="translate(1295.8 -165)"/>
    <rect id="Rectangle_1553" data-name="Rectangle 1553" class="cls-3" width="64" height="64" transform="translate(1283 -228)"/>
  </g>
</svg>
