<svg id="logotipo" xmlns="http://www.w3.org/2000/svg" width="126" height="48" viewBox="0 0 126 48">
  <defs>
    <style>
      .cls-1 {
        fill: #0070b8;
      }

      .cls-2 {
        fill: #263c97;
      }
    </style>
  </defs>
  <g id="Group_12378" data-name="Group 12378" transform="translate(0 0)">
    <path id="Path_4448" data-name="Path 4448" class="cls-1" d="M134.752,8.479l.839.657a.764.764,0,0,0,.976-.03l4.45-3.922a.765.765,0,0,1,1.01,0l4.48,3.956a.762.762,0,0,0,.991.015l.865-.72a.769.769,0,0,0,.149-1.019c-1.495-2.194-3.2-4.437-4.439-5.93C143.145.418,142.635,0,141.52,0s-1.67.463-2.553,1.534c-1.193,1.411-2.859,3.68-4.379,5.915A.762.762,0,0,0,134.752,8.479Z" transform="translate(-84.344 0)"/>
    <path id="Path_4449" data-name="Path 4449" class="cls-1" d="M70.389,40.345a16.676,16.676,0,0,1-6.217,9.725h0a10.94,10.94,0,0,1-6.127,2.206c-3.571,0-5.307-3-5.743-5.814a.764.764,0,0,1,.723-.888c4.487-.16,12.314-1.388,12.314-8.113,0-4.135-2.833-6.46-7.38-6.46-6.914,0-10.808,5.3-11.274,11.588v0c-.239,3.221-1.066,5.206-3.44,6.65a18.948,18.948,0,0,0,.887-6.064C44.132,35.139,40.651,31,33.227,31a33.525,33.525,0,0,0-9.28,1.534v6.915a10.777,10.777,0,0,1-2.952,6.281,4.432,4.432,0,0,1-1.785,1.086V31.7H13.738V46.055c0,2.65-1.625,4.09-4.271,4.09-3.667,0-3.943-2.232-3.943-5.251V31.7H0V45.872c0,4.646,2.367,6.967,6.172,7.527C3.619,55.213,1.3,57.859,1.3,61.344c0,3.717,2.5,6.087,7.517,6.087,5.8,0,9.142-3.254,10.026-8.83a57.828,57.828,0,0,0,.373-6.46V50.033a22.617,22.617,0,0,0,2.426-1.862,11.241,11.241,0,0,0,2.311-2.638v19.3h5.523V54.422A9.672,9.672,0,0,0,34.3,55.769c.227,0,.447-.007.667-.019v0a15.724,15.724,0,0,0,12.221-7.344c1.189,4.478,4.413,7.363,10.272,7.363a13.507,13.507,0,0,0,8.17-2.6,14.169,14.169,0,0,0,4.774-7.8C71.1,42.692,71.183,36.225,70.389,40.345ZM13.783,56.232c0,4.18-1.07,7.2-4.316,7.2-2.087,0-3.108-1.161-3.108-2.974,0-3.9,3.339-6.18,7.424-8.132ZM29.47,35.74a11.9,11.9,0,0,1,2.739-.325c4.267,0,6.358,2.743,6.358,8.177,0,3.717-1.208,7.621-5.151,7.621a7.576,7.576,0,0,1-3.943-1.161V35.74Zm22.623,5.4c.38-3.153,2.147-6.191,5.546-6.191A2.573,2.573,0,0,1,60.423,37.7c0,3.206-4.737,4.172-7.521,4.307A.775.775,0,0,1,52.093,41.143Z" transform="translate(0 -19.431)"/>
  </g>
  <path id="Path_4450" data-name="Path 4450" class="cls-2" d="M239.119,36.7a6.2,6.2,0,0,1-3.157.974c-1.9,0-3.015-.836-3.015-3.672V22.2h6.265V17.883h-6.265V8.96h-5.523V31.639a16.938,16.938,0,0,1-4.185,4.613l0,0a10.941,10.941,0,0,1-6.127,2.2c-3.943,0-5.65-3.665-5.837-6.684,4.271-.049,13.134-.974,13.134-8.132,0-4.135-2.833-6.46-7.38-6.46-7.227,0-11.155,5.792-11.315,12.45-.771,4.56-1.193,7.3-3.041,7.647-2.419.452-.492-7.509-.5-12.009,0-5.613-2.732-8.083-7.372-8.083a8.376,8.376,0,0,0-7.148,3.624l-.462-2.926h-4.64l.373,4.042V41.256h5.523v-15.1a4.715,4.715,0,0,1,4.733-4.695c2.97,0,3.578,2.351,3.578,5.187-.164,6.923-.973,15.014,4.253,15.014,2.7,0,5.013-2.262,5.6-5.941,1.413,3.829,4.562,6.236,9.914,6.236a13.507,13.507,0,0,0,8.17-2.6h0a11.548,11.548,0,0,0,2.792-3.1c.22,2.806,1.349,5.661,7.137,5.661a10.982,10.982,0,0,0,5.892-1.627ZM216.7,21.137a2.573,2.573,0,0,1,2.784,2.743c0,3.579-5.892,4.366-8.4,4.322C211.23,24.761,212.992,21.137,216.7,21.137Z" transform="translate(-114.513 -5.616)"/>
</svg>
