<svg id="logo-reduzida" xmlns="http://www.w3.org/2000/svg" width="48" height="48" viewBox="0 0 48 48">
  <rect id="Rectangle_1543" data-name="Rectangle 1543" width="48" height="48" fill="none"/>
  <g id="Group_12377" data-name="Group 12377" transform="translate(0 3.247)">
    <path id="Path_4426" data-name="Path 4426" d="M84.973,17.93a5.374,5.374,0,0,0-1.43,3.623v17.2h-6.3V16.737L76.82,12.13h5.293l.53,3.337Z" transform="translate(-51.213 -11.333)" fill="#263c97"/>
    <path id="Path_4427" data-name="Path 4427" d="M39.583,9.74a11.683,11.683,0,0,0-1.51.1v0a6.464,6.464,0,0,0-.853.15A9.316,9.316,0,0,0,31.7,13.5c-.087.11-.17.223-.253.34a.141.141,0,0,0-.017.023h0a10.085,10.085,0,0,0-1.127,2.4,27.082,27.082,0,0,1-4.293,8.013,19.028,19.028,0,0,1-1.967,2.153,5.011,5.011,0,0,1-2.13,1.263V10.537H15.67V26.893c0,3.017-1.853,4.66-4.87,4.66-4.18,0-4.5-2.54-4.5-5.983V10.537H0V26.683c0,5.293,2.7,7.94,7.04,8.577-2.913,2.063-5.56,5.083-5.56,9.053,0,4.237,2.86,6.933,8.577,6.933,6.617,0,10.43-3.707,11.433-10.057a65.867,65.867,0,0,0,.423-7.36V31.39a25.412,25.412,0,0,0,2.857-2.183c.343-.3.667-.6.983-.92.133-.117.26-.23.39-.347C28.4,25.947,29.71,23.9,32.76,17.88a6.155,6.155,0,0,1,4.71-3.257c.08,0,.16-.013.24-.013h.013c3.387,0,3.97,2.487,3.97,5.717V37.163H48V18.953C48,12.707,44.877,9.74,39.583,9.74ZM15.723,38.487c0,4.767-1.217,8.207-4.923,8.207-2.383,0-3.547-1.323-3.547-3.387,0-4.447,3.81-7.04,8.47-9.263Z" transform="translate(0 -9.74)" fill="#0070b8"/>
  </g>
</svg>
