<svg xmlns="http://www.w3.org/2000/svg" width="64" height="64" viewBox="0 0 64 64">
  <defs>
    <style>
      .cls-1 {
        fill: #a0d71e;
      }

      .cls-2 {
        fill: #fff;
      }

      .cls-3 {
        fill: none;
      }
    </style>
  </defs>
  <g id="conect-ype" transform="translate(-1283 228)">
    <circle id="Ellipse_3" data-name="Ellipse 3" class="cls-1" cx="25.6" cy="25.6" r="25.6" transform="translate(1283 -228)"/>
    <path id="Path_4435" data-name="Path 4435" class="cls-2" d="M33.469-51a1.532,1.532,0,0,1,1.121.473L50.527-34.589A1.532,1.532,0,0,1,51-33.469a1.532,1.532,0,0,1-.473,1.121L44.476-26.3q.623.623,1.22,1.2a9.932,9.932,0,0,1,1.058,1.183,5.665,5.665,0,0,1,.747,1.332,4.5,4.5,0,0,1,.286,1.668,4.872,4.872,0,0,1-.374,1.893,5.023,5.023,0,0,1-1.021,1.569,4.936,4.936,0,0,1-1.519,1.071,4.729,4.729,0,0,1-1.868.423,5.326,5.326,0,0,1-.423,1.88,4.792,4.792,0,0,1-1.009,1.494A4.792,4.792,0,0,1,40.08-11.58a4.916,4.916,0,0,1-1.855.4A4.729,4.729,0,0,1,37.8-9.313a5.093,5.093,0,0,1-1.071,1.531,4.914,4.914,0,0,1-1.569,1.033,4.872,4.872,0,0,1-1.893.374,5.1,5.1,0,0,1-1.619-.274,5.53,5.53,0,0,1-.735,1.407,5.024,5.024,0,0,1-1.083,1.1,4.882,4.882,0,0,1-1.37.71,4.928,4.928,0,0,1-1.569.249A5.251,5.251,0,0,1,25.749-3.3a3.908,3.908,0,0,1-.934-.336,5.245,5.245,0,0,1-.847-.548q-.411-.324-.859-.722A9.044,9.044,0,0,1,21.4-3.648a4.257,4.257,0,0,1-2.079.461,4.872,4.872,0,0,1-1.893-.374,5.023,5.023,0,0,1-1.569-1.021A4.936,4.936,0,0,1,14.792-6.1a4.784,4.784,0,0,1-.423-1.893,4.957,4.957,0,0,1-1.843-.4,4.8,4.8,0,0,1-1.519-1.021,4.8,4.8,0,0,1-1.021-1.519,4.957,4.957,0,0,1-.4-1.843,4.916,4.916,0,0,1-1.855-.4,4.688,4.688,0,0,1-1.494-1.021,5.09,5.09,0,0,1-1.021-1.519,4.811,4.811,0,0,1-.411-1.843,4.784,4.784,0,0,1-1.893-.423A4.936,4.936,0,0,1,1.395-19.05,5.062,5.062,0,0,1,.374-20.607,4.781,4.781,0,0,1,0-22.487,4.8,4.8,0,0,1,.386-24.4a5.377,5.377,0,0,1,1.083-1.619l2.64-2.665L.473-32.348A1.532,1.532,0,0,1,0-33.469a1.532,1.532,0,0,1,.473-1.121L16.411-50.527A1.532,1.532,0,0,1,17.531-51a1.532,1.532,0,0,1,1.121.473l3.287,3.287q.324-.1,1.258-.423t2.154-.735q1.22-.411,2.577-.872t2.54-.847q1.183-.386,2-.635A5.546,5.546,0,0,1,33.469-51ZM7.77-27.094a1.7,1.7,0,0,0-1.245.523L3.71-23.782a1.729,1.729,0,0,0-.523,1.27,1.709,1.709,0,0,0,.51,1.258,1.709,1.709,0,0,0,1.258.51,1.72,1.72,0,0,0,1.27-.5L9.04-24.031a1.729,1.729,0,0,0,.523-1.27,1.729,1.729,0,0,0-.523-1.27A1.729,1.729,0,0,0,7.77-27.094Zm4.781,4.781a1.8,1.8,0,0,0-.685.137,1.754,1.754,0,0,0-.585.386L8.492-18.976a1.729,1.729,0,0,0-.523,1.27,1.66,1.66,0,0,0,.523,1.233,1.751,1.751,0,0,0,1.27.51,1.958,1.958,0,0,0,.685-.125,1.606,1.606,0,0,0,.585-.374l2.789-2.814a1.7,1.7,0,0,0,.523-1.245,1.729,1.729,0,0,0-.523-1.27A1.729,1.729,0,0,0,12.551-22.312Zm4.781,4.781a1.7,1.7,0,0,0-1.245.523l-2.814,2.789a1.729,1.729,0,0,0-.523,1.27,1.709,1.709,0,0,0,.51,1.258,1.709,1.709,0,0,0,1.258.51,1.72,1.72,0,0,0,1.27-.5L18.6-14.468a1.729,1.729,0,0,0,.523-1.27,1.729,1.729,0,0,0-.523-1.27A1.729,1.729,0,0,0,17.332-17.531Zm.2,9.388a1.66,1.66,0,0,0,.523,1.233,1.751,1.751,0,0,0,1.27.51,1.958,1.958,0,0,0,.685-.125,1.606,1.606,0,0,0,.585-.374l2.789-2.814a1.7,1.7,0,0,0,.523-1.245,1.709,1.709,0,0,0-.535-1.27,1.742,1.742,0,0,0-1.258-.523,1.8,1.8,0,0,0-.685.137,1.754,1.754,0,0,0-.585.386L18.054-9.413A1.729,1.729,0,0,0,17.531-8.143Zm25.3-10.982a1.742,1.742,0,0,0,1.258-.523,1.681,1.681,0,0,0,.535-1.245,1.729,1.729,0,0,0-.523-1.27L28.364-37.926a.679.679,0,0,0-.249-.137,2.571,2.571,0,0,0-.361-.1q-.187-.037-.374-.062a2.339,2.339,0,0,0-.286-.025A3.116,3.116,0,0,0,25.861-38a3.2,3.2,0,0,0-1.021.685,3.2,3.2,0,0,0-.685,1.021,3.116,3.116,0,0,0-.249,1.233,6.2,6.2,0,0,1-.5,2.478,6.439,6.439,0,0,1-1.37,2.03,6.439,6.439,0,0,1-2.03,1.37,6.2,6.2,0,0,1-2.478.5,4.691,4.691,0,0,1-1.868-.374,4.8,4.8,0,0,1-1.519-1.021A4.8,4.8,0,0,1,13.124-31.6a4.691,4.691,0,0,1-.374-1.868,8.038,8.038,0,0,1,.125-1.332,4.566,4.566,0,0,1,.4-1.282l4.657-9.338a1.687,1.687,0,0,1,.672-.647L17.531-47.14,3.835-33.469,7.2-30.132a5.425,5.425,0,0,1,2.117.162,4.63,4.63,0,0,1,1.743.921,4.7,4.7,0,0,1,1.2,1.569,4.945,4.945,0,0,1,.473,2.054,5.568,5.568,0,0,1,1.868.411,4.588,4.588,0,0,1,1.507,1,4.792,4.792,0,0,1,1.009,1.494,4.974,4.974,0,0,1,.4,1.88,5.568,5.568,0,0,1,1.868.411,4.588,4.588,0,0,1,1.507,1,4.792,4.792,0,0,1,1.009,1.494,4.974,4.974,0,0,1,.4,1.88,5.437,5.437,0,0,1,1.893.423A4.7,4.7,0,0,1,25.7-14.406a4.948,4.948,0,0,1,1.021,1.531,4.818,4.818,0,0,1,.374,1.917,4.931,4.931,0,0,1-.448,2.092,4.915,4.915,0,0,1-1.295,1.693,7.142,7.142,0,0,0,.685.573,1.447,1.447,0,0,0,.859.224A1.742,1.742,0,0,0,28.152-6.9a1.681,1.681,0,0,0,.535-1.245,1.729,1.729,0,0,0-.523-1.27l2.241-2.266,1.619,1.594a1.814,1.814,0,0,0,1.245.523,1.742,1.742,0,0,0,1.258-.523,1.681,1.681,0,0,0,.535-1.245,1.729,1.729,0,0,0-.523-1.27l-2.814-2.814,2.266-2.241,2.789,2.789a1.729,1.729,0,0,0,1.27.523,1.729,1.729,0,0,0,1.27-.523,1.729,1.729,0,0,0,.523-1.27,1.729,1.729,0,0,0-.523-1.27L36.507-20.2l2.266-2.266,2.814,2.814A1.7,1.7,0,0,0,42.832-19.125ZM47.14-33.469,33.045-47.588,20.495-43.4l-4.333,8.666a1.749,1.749,0,0,0-.174.623,5.448,5.448,0,0,0-.05.647,1.532,1.532,0,0,0,.473,1.121,1.532,1.532,0,0,0,1.121.473,3.089,3.089,0,0,0,1.245-.249,3.239,3.239,0,0,0,1.009-.685,3.239,3.239,0,0,0,.685-1.009,3.089,3.089,0,0,0,.249-1.245,6.2,6.2,0,0,1,.5-2.478,6.439,6.439,0,0,1,1.37-2.03,6.439,6.439,0,0,1,2.03-1.37,6.2,6.2,0,0,1,2.478-.5,5.387,5.387,0,0,1,.859.075,7.915,7.915,0,0,1,.934.212,4.9,4.9,0,0,1,.884.349,2.822,2.822,0,0,1,.71.51L42.234-28.538Z" transform="translate(1295.8 -165)"/>
    <rect id="Rectangle_1551" data-name="Rectangle 1551" class="cls-3" width="64" height="64" transform="translate(1283 -228)"/>
  </g>
</svg>
