<svg xmlns="http://www.w3.org/2000/svg" width="64" height="64" viewBox="0 0 64 64">
  <defs>
    <style>
      .cls-1 {
        fill: #a0d71e;
      }

      .cls-2 {
        fill: #fff;
      }

      .cls-3 {
        fill: none;
      }
    </style>
  </defs>
  <g id="interhativa-ype" transform="translate(-1283 228)">
    <circle id="Ellipse_3" data-name="Ellipse 3" class="cls-1" cx="25.6" cy="25.6" r="25.6" transform="translate(1283 -228)"/>
    <path id="Path_4441" data-name="Path 4441" class="cls-2" d="M34.789-12.4a15.58,15.58,0,0,0-1.955-5.229,16.431,16.431,0,0,0-3.511-4.146,15.885,15.885,0,0,0-4.694-2.739,15.5,15.5,0,0,0-5.5-.984,15.6,15.6,0,0,0-4.233.573,16.166,16.166,0,0,0-3.81,1.606,15.866,15.866,0,0,0-3.225,2.49,15.866,15.866,0,0,0-2.49,3.225A16.166,16.166,0,0,0,3.76-13.8a15.6,15.6,0,0,0-.573,4.233H0a18.764,18.764,0,0,1,.884-5.7A19.5,19.5,0,0,1,3.4-20.432a19.579,19.579,0,0,1,3.91-4.208,16.984,16.984,0,0,1,5.043-2.8,13.433,13.433,0,0,1-2.5-2.067,12.579,12.579,0,0,1-1.88-2.565,12.776,12.776,0,0,1-1.183-2.963,12.627,12.627,0,0,1-.411-3.212,12.5,12.5,0,0,1,1-4.968A12.794,12.794,0,0,1,10.1-47.277,12.794,12.794,0,0,1,14.157-50a12.5,12.5,0,0,1,4.968-1,12.5,12.5,0,0,1,4.968,1,12.794,12.794,0,0,1,4.059,2.727,12.794,12.794,0,0,1,2.727,4.059,12.5,12.5,0,0,1,1,4.968,12.627,12.627,0,0,1-.411,3.212,12.776,12.776,0,0,1-1.183,2.963A12.889,12.889,0,0,1,28.4-29.5a12.466,12.466,0,0,1-2.5,2.054,19.253,19.253,0,0,1,4.557,2.49,18.915,18.915,0,0,1,3.673,3.561,19.468,19.468,0,0,1,2.6,4.42,18.618,18.618,0,0,1,1.345,5.018l-1.419,1.444ZM9.563-38.25a9.292,9.292,0,0,0,.747,3.723,9.677,9.677,0,0,0,2.054,3.038A9.677,9.677,0,0,0,15.4-29.435a9.292,9.292,0,0,0,3.723.747,9.319,9.319,0,0,0,3.71-.747,9.638,9.638,0,0,0,3.051-2.054,9.677,9.677,0,0,0,2.054-3.038,9.292,9.292,0,0,0,.747-3.723,9.319,9.319,0,0,0-.747-3.71,9.638,9.638,0,0,0-2.054-3.051,9.638,9.638,0,0,0-3.051-2.054,9.319,9.319,0,0,0-3.71-.747,9.292,9.292,0,0,0-3.723.747,9.677,9.677,0,0,0-3.038,2.054A9.638,9.638,0,0,0,10.31-41.96,9.319,9.319,0,0,0,9.563-38.25ZM50.527-14.817,36.656-.921l-6.7-6.724L32.2-9.886l4.458,4.433,11.629-11.6Z" transform="translate(1295.8 -165)"/>
    <rect id="Rectangle_1557" data-name="Rectangle 1557" class="cls-3" width="64" height="64" transform="translate(1283 -228)"/>
  </g>
</svg>
