<svg xmlns="http://www.w3.org/2000/svg" width="64" height="64" viewBox="0 0 64 64">
  <defs>
    <style>
      .cls-1 {
        fill: #a0d71e;
      }

      .cls-2 {
        fill: #fff;
      }

      .cls-3 {
        fill: none;
      }
    </style>
  </defs>
  <g id="lecom" transform="translate(-1283 228)">
    <circle id="Ellipse_3" data-name="Ellipse 3" class="cls-1" cx="25.6" cy="25.6" r="25.6" transform="translate(1283 -228)"/>
    <path id="Path_4436" data-name="Path 4436" class="cls-2" d="M44.625-33.469a7.737,7.737,0,0,1-.486,2.739,8.036,8.036,0,0,1-1.357,2.341,8.161,8.161,0,0,1-2.067,1.768,7.523,7.523,0,0,1-2.615.971,8.076,8.076,0,0,1-.984,2.615,7.952,7.952,0,0,1-1.756,2.067,8.036,8.036,0,0,1-2.341,1.357,7.737,7.737,0,0,1-2.739.486H20.719a4.627,4.627,0,0,0-1.519.249,4.784,4.784,0,0,0-1.32.7A4.808,4.808,0,0,0,16.834-17.1a4.745,4.745,0,0,0-.672,1.382,7.931,7.931,0,0,1,2.478,1.058A8.033,8.033,0,0,1,20.582-12.9a8.113,8.113,0,0,1,1.27,2.291,7.682,7.682,0,0,1,.461,2.64,7.674,7.674,0,0,1-.635,3.1,8.171,8.171,0,0,1-1.718,2.54A8.036,8.036,0,0,1,17.432-.623,7.717,7.717,0,0,1,14.344,0a7.806,7.806,0,0,1-3.1-.623A8,8,0,0,1,8.7-2.328,8,8,0,0,1,7-4.868a7.806,7.806,0,0,1-.623-3.1,7.847,7.847,0,0,1,.473-2.714,7.947,7.947,0,0,1,1.32-2.328,8.048,8.048,0,0,1,2.017-1.756,7.649,7.649,0,0,1,2.565-1V-35.237a7.649,7.649,0,0,1-2.565-1,8.048,8.048,0,0,1-2.017-1.756,7.947,7.947,0,0,1-1.32-2.328,7.847,7.847,0,0,1-.473-2.714A7.717,7.717,0,0,1,7-46.119,8.036,8.036,0,0,1,8.7-48.647a8.171,8.171,0,0,1,2.54-1.718,7.674,7.674,0,0,1,3.1-.635,7.587,7.587,0,0,1,3.088.635,8.212,8.212,0,0,1,2.528,1.718,8.212,8.212,0,0,1,1.718,2.528,7.587,7.587,0,0,1,.635,3.088,7.847,7.847,0,0,1-.473,2.714,7.947,7.947,0,0,1-1.32,2.328A8.048,8.048,0,0,1,18.5-36.233a7.649,7.649,0,0,1-2.565,1v14.568a8.1,8.1,0,0,1,2.266-1.22,7.62,7.62,0,0,1,2.515-.423h9.563a4.627,4.627,0,0,0,1.519-.249,4.784,4.784,0,0,0,1.32-.7,4.808,4.808,0,0,0,1.046-1.083,4.745,4.745,0,0,0,.672-1.382,8.1,8.1,0,0,1-2.478-1.046,7.706,7.706,0,0,1-1.942-1.756,8.347,8.347,0,0,1-1.27-2.291,7.649,7.649,0,0,1-.461-2.652,7.717,7.717,0,0,1,.623-3.088,8.036,8.036,0,0,1,1.706-2.528,8.171,8.171,0,0,1,2.54-1.718,7.674,7.674,0,0,1,3.1-.635,7.587,7.587,0,0,1,3.088.635,8.212,8.212,0,0,1,2.528,1.718,8.212,8.212,0,0,1,1.718,2.528A7.587,7.587,0,0,1,44.625-33.469ZM9.563-43.031a4.691,4.691,0,0,0,.374,1.868,4.8,4.8,0,0,0,1.021,1.519,4.8,4.8,0,0,0,1.519,1.021,4.691,4.691,0,0,0,1.868.374,4.691,4.691,0,0,0,1.868-.374,4.8,4.8,0,0,0,1.519-1.021,4.8,4.8,0,0,0,1.021-1.519,4.691,4.691,0,0,0,.374-1.868,4.691,4.691,0,0,0-.374-1.868,4.8,4.8,0,0,0-1.021-1.519,4.8,4.8,0,0,0-1.519-1.021,4.691,4.691,0,0,0-1.868-.374,4.691,4.691,0,0,0-1.868.374,4.8,4.8,0,0,0-1.519,1.021A4.8,4.8,0,0,0,9.936-44.9,4.691,4.691,0,0,0,9.563-43.031ZM19.125-7.969a4.691,4.691,0,0,0-.374-1.868,4.8,4.8,0,0,0-1.021-1.519,4.8,4.8,0,0,0-1.519-1.021,4.691,4.691,0,0,0-1.868-.374,4.691,4.691,0,0,0-1.868.374,4.8,4.8,0,0,0-1.519,1.021A4.8,4.8,0,0,0,9.936-9.836a4.691,4.691,0,0,0-.374,1.868A4.691,4.691,0,0,0,9.936-6.1a4.8,4.8,0,0,0,1.021,1.519,4.8,4.8,0,0,0,1.519,1.021,4.691,4.691,0,0,0,1.868.374,4.691,4.691,0,0,0,1.868-.374A4.8,4.8,0,0,0,17.73-4.582,4.8,4.8,0,0,0,18.751-6.1,4.691,4.691,0,0,0,19.125-7.969ZM36.656-28.687a4.691,4.691,0,0,0,1.868-.374,4.8,4.8,0,0,0,1.519-1.021A4.8,4.8,0,0,0,41.064-31.6a4.691,4.691,0,0,0,.374-1.868,4.691,4.691,0,0,0-.374-1.868,4.8,4.8,0,0,0-1.021-1.519,4.8,4.8,0,0,0-1.519-1.021,4.691,4.691,0,0,0-1.868-.374,4.691,4.691,0,0,0-1.868.374,4.8,4.8,0,0,0-1.519,1.021,4.8,4.8,0,0,0-1.021,1.519,4.691,4.691,0,0,0-.374,1.868,4.691,4.691,0,0,0,.374,1.868,4.8,4.8,0,0,0,1.021,1.519,4.8,4.8,0,0,0,1.519,1.021A4.691,4.691,0,0,0,36.656-28.687Z" transform="translate(1295.8 -165)"/>
    <rect id="Rectangle_1552" data-name="Rectangle 1552" class="cls-3" width="64" height="64" transform="translate(1283 -228)"/>
  </g>
</svg>
