<svg xmlns="http://www.w3.org/2000/svg" width="64" height="64" viewBox="0 0 64 64">
  <defs>
    <style>
      .cls-1 {
        fill: #a0d71e;
      }

      .cls-2 {
        fill: #fff;
      }

      .cls-3 {
        fill: none;
      }
    </style>
  </defs>
  <g id="ponto-eletronico" transform="translate(-1283 228)">
    <circle id="Ellipse_3" data-name="Ellipse 3" class="cls-1" cx="25.896" cy="25.896" r="25.896" transform="translate(1283 -228)"/>
    <path id="Path_4440" data-name="Path 4440" class="cls-2" d="M50.527-14.817,36.656-.921l-6.7-6.724L32.2-9.886l4.458,4.433,11.629-11.6ZM25.5-41.437v12.75h9.563V-25.5H22.313V-41.437ZM23.906-6.375q.4,0,.8-.025l.8-.05,2.839,2.839q-1.121.2-2.216.311a21.77,21.77,0,0,1-2.216.112,23.267,23.267,0,0,1-6.338-.859,24.386,24.386,0,0,1-5.715-2.416A23.791,23.791,0,0,1,7.01-10.2a23.791,23.791,0,0,1-3.735-4.844A24.386,24.386,0,0,1,.859-20.756,23.267,23.267,0,0,1,0-27.094a23.267,23.267,0,0,1,.859-6.338,24.386,24.386,0,0,1,2.416-5.715A23.791,23.791,0,0,1,7.01-43.99a23.791,23.791,0,0,1,4.844-3.735,24.386,24.386,0,0,1,5.715-2.416A23.267,23.267,0,0,1,23.906-51a23.267,23.267,0,0,1,6.338.859,24.386,24.386,0,0,1,5.715,2.416A23.791,23.791,0,0,1,40.8-43.99a23.791,23.791,0,0,1,3.735,4.844,24.386,24.386,0,0,1,2.416,5.715,23.267,23.267,0,0,1,.859,6.338,21.512,21.512,0,0,1-.149,2.515L43.479-20.37a20.439,20.439,0,0,0,1.146-6.724,20.112,20.112,0,0,0-.747-5.5,21.224,21.224,0,0,0-2.092-4.943,20.594,20.594,0,0,0-3.237-4.2,20.594,20.594,0,0,0-4.2-3.237,21.224,21.224,0,0,0-4.943-2.092,20.112,20.112,0,0,0-5.5-.747,20.112,20.112,0,0,0-5.5.747,21.224,21.224,0,0,0-4.943,2.092,20.594,20.594,0,0,0-4.2,3.237,20.594,20.594,0,0,0-3.237,4.2A21.224,21.224,0,0,0,3.935-32.6a20.112,20.112,0,0,0-.747,5.5,20.112,20.112,0,0,0,.747,5.5,21.224,21.224,0,0,0,2.092,4.943,20.594,20.594,0,0,0,3.237,4.2,20.594,20.594,0,0,0,4.2,3.237A21.224,21.224,0,0,0,18.4-7.122,20.112,20.112,0,0,0,23.906-6.375Z" transform="translate(1295.948 -165)"/>
    <rect id="Rectangle_1556" data-name="Rectangle 1556" class="cls-3" width="64" height="64" transform="translate(1283 -228)"/>
  </g>
</svg>
