<svg xmlns="http://www.w3.org/2000/svg" width="64" height="64" viewBox="0 0 64 64">
  <defs>
    <style>
      .cls-1 {
        fill: #a0d71e;
      }

      .cls-2 {
        fill: #fff;
      }

      .cls-3 {
        fill: none;
      }
    </style>
  </defs>
  <g id="portal-juridico" transform="translate(-1283 228)">
    <circle id="Ellipse_3" data-name="Ellipse 3" class="cls-1" cx="25.6" cy="25.6" r="25.6" transform="translate(1283 -228)"/>
    <path id="Path_4434" data-name="Path 4434" class="cls-2" d="M39.918-44.625l5.329,15.938h2.565V-25.5h-.548a9.292,9.292,0,0,1-1.407,2.6,9.626,9.626,0,0,1-2.092,2.017,9.706,9.706,0,0,1-2.59,1.295,9.343,9.343,0,0,1-2.926.461,9.343,9.343,0,0,1-2.926-.461,9.706,9.706,0,0,1-2.59-1.295A9.626,9.626,0,0,1,30.642-22.9a9.292,9.292,0,0,1-1.407-2.6h-.548v-3.187h2.565l5.329-15.937H25.5V-9.513A23.566,23.566,0,0,1,40.167-3.187h4.458V0H3.188V-3.187H7.645A23.566,23.566,0,0,1,22.313-9.513V-44.625H11.231L16.56-28.687h2.565V-25.5h-.548a9.292,9.292,0,0,1-1.407,2.6,9.626,9.626,0,0,1-2.092,2.017,9.706,9.706,0,0,1-2.59,1.295,9.343,9.343,0,0,1-2.926.461,9.343,9.343,0,0,1-2.926-.461,9.706,9.706,0,0,1-2.59-1.295A9.626,9.626,0,0,1,1.955-22.9,9.292,9.292,0,0,1,.548-25.5H0v-3.187H2.565L7.894-44.625H0v-3.187H22.313V-51H25.5v3.188H47.813v3.188ZM9.563-39.595,5.927-28.687H13.2Zm0,17.282a6.275,6.275,0,0,0,3.188-.847A6.333,6.333,0,0,0,15.091-25.5H4.034a6.333,6.333,0,0,0,2.341,2.341A6.275,6.275,0,0,0,9.563-22.312Zm25.4,19.125a20.748,20.748,0,0,0-22.113,0ZM38.25-39.595,34.614-28.687h7.271Zm0,17.282a6.275,6.275,0,0,0,3.188-.847A6.333,6.333,0,0,0,43.778-25.5H32.722a6.333,6.333,0,0,0,2.341,2.341A6.275,6.275,0,0,0,38.25-22.312Z" transform="translate(1295.8 -165)"/>
    <rect id="Rectangle_1550" data-name="Rectangle 1550" class="cls-3" width="64" height="64" transform="translate(1283 -228)"/>
  </g>
</svg>
