<svg xmlns="http://www.w3.org/2000/svg" width="64" height="64" viewBox="0 0 64 64">
  <defs>
    <style>
      .cls-1 {
        fill: #a0d71e;
      }

      .cls-2 {
        fill: #fff;
      }

      .cls-3 {
        fill: none;
      }
    </style>
  </defs>
  <g id="rdv" transform="translate(-1283 228)">
    <circle id="Ellipse_3" data-name="Ellipse 3" class="cls-1" cx="25.6" cy="25.6" r="25.6" transform="translate(1283 -228)"/>
    <path id="Path_4430" data-name="Path 4430" class="cls-2" d="M51-41.437V-9.562H3.188v-6.375H0V-44.625H44.625v3.188Zm-12.75,0a3.089,3.089,0,0,0,.249,1.245,3.239,3.239,0,0,0,.685,1.009,3.239,3.239,0,0,0,1.009.685,3.089,3.089,0,0,0,1.245.249v-3.187ZM3.188-38.25A3.089,3.089,0,0,0,4.433-38.5a3.239,3.239,0,0,0,1.009-.685,3.239,3.239,0,0,0,.685-1.009,3.089,3.089,0,0,0,.249-1.245H3.188Zm0,12.75a6.2,6.2,0,0,1,2.478.5,6.439,6.439,0,0,1,2.03,1.37,6.439,6.439,0,0,1,1.37,2.03,6.2,6.2,0,0,1,.5,2.478h25.5a6.2,6.2,0,0,1,.5-2.478,6.439,6.439,0,0,1,1.37-2.03A6.439,6.439,0,0,1,38.96-25a6.2,6.2,0,0,1,2.478-.5v-9.562a6.2,6.2,0,0,1-2.478-.5,6.439,6.439,0,0,1-2.03-1.37,6.439,6.439,0,0,1-1.37-2.03,6.2,6.2,0,0,1-.5-2.478H9.563a6.2,6.2,0,0,1-.5,2.478,6.439,6.439,0,0,1-1.37,2.03,6.439,6.439,0,0,1-2.03,1.37,6.2,6.2,0,0,1-2.478.5Zm38.25,3.188a3.089,3.089,0,0,0-1.245.249,3.239,3.239,0,0,0-1.009.685A3.239,3.239,0,0,0,38.5-20.37a3.089,3.089,0,0,0-.249,1.245h3.188ZM3.188-19.125H6.375a3.089,3.089,0,0,0-.249-1.245,3.239,3.239,0,0,0-.685-1.009,3.239,3.239,0,0,0-1.009-.685,3.089,3.089,0,0,0-1.245-.249ZM47.813-38.25H44.625v22.313H6.375v3.188H47.813ZM11.156-28.687a1.532,1.532,0,0,1-1.121-.473,1.532,1.532,0,0,1-.473-1.121,1.532,1.532,0,0,1,.473-1.121,1.532,1.532,0,0,1,1.121-.473,1.532,1.532,0,0,1,1.121.473,1.532,1.532,0,0,1,.473,1.121,1.532,1.532,0,0,1-.473,1.121A1.532,1.532,0,0,1,11.156-28.687Zm22.313,0a1.532,1.532,0,0,1-1.121-.473,1.532,1.532,0,0,1-.473-1.121,1.532,1.532,0,0,1,.473-1.121,1.532,1.532,0,0,1,1.121-.473,1.532,1.532,0,0,1,1.121.473,1.532,1.532,0,0,1,.473,1.121,1.532,1.532,0,0,1-.473,1.121A1.532,1.532,0,0,1,33.469-28.687ZM22.313-22.312a6.2,6.2,0,0,1-2.478-.5,6.439,6.439,0,0,1-2.03-1.37,6.439,6.439,0,0,1-1.37-2.03,6.2,6.2,0,0,1-.5-2.478v-3.187a6.2,6.2,0,0,1,.5-2.478,6.439,6.439,0,0,1,1.37-2.03,6.439,6.439,0,0,1,2.03-1.37,6.2,6.2,0,0,1,2.478-.5,6.2,6.2,0,0,1,2.478.5,6.439,6.439,0,0,1,2.03,1.37,6.439,6.439,0,0,1,1.37,2.03,6.2,6.2,0,0,1,.5,2.478v3.188a6.2,6.2,0,0,1-.5,2.478,6.439,6.439,0,0,1-1.37,2.03,6.439,6.439,0,0,1-2.03,1.37A6.2,6.2,0,0,1,22.313-22.312Zm-3.187-6.375a3.089,3.089,0,0,0,.249,1.245,3.239,3.239,0,0,0,.685,1.009,3.239,3.239,0,0,0,1.009.685,3.089,3.089,0,0,0,1.245.249,3.089,3.089,0,0,0,1.245-.249,3.239,3.239,0,0,0,1.009-.685,3.239,3.239,0,0,0,.685-1.009,3.089,3.089,0,0,0,.249-1.245v-3.187a3.089,3.089,0,0,0-.249-1.245,3.239,3.239,0,0,0-.685-1.009,3.239,3.239,0,0,0-1.009-.685,3.089,3.089,0,0,0-1.245-.249,3.089,3.089,0,0,0-1.245.249,3.239,3.239,0,0,0-1.009.685,3.239,3.239,0,0,0-.685,1.009,3.089,3.089,0,0,0-.249,1.245Z" transform="translate(1296 -165)"/>
    <rect id="Rectangle_1546" data-name="Rectangle 1546" class="cls-3" width="64" height="64" transform="translate(1283 -228)"/>
  </g>
</svg>
