<svg xmlns="http://www.w3.org/2000/svg" width="64" height="64" viewBox="0 0 64 64">
  <defs>
    <style>
      .cls-1 {
        fill: #a0d71e;
      }

      .cls-2 {
        fill: #fff;
      }

      .cls-3 {
        fill: none;
      }
    </style>
  </defs>
  <g id="service-desk" transform="translate(-1283 228)">
    <circle id="Ellipse_3" data-name="Ellipse 3" class="cls-1" cx="25.6" cy="25.6" r="25.6" transform="translate(1283 -228)"/>
    <path id="Path_4439" data-name="Path 4439" class="cls-2" d="M44.4-26.4q0,.224.012.448t.012.448q0,.224-.012.448T44.4-24.6l6.45,4.009-3.959,9.538L39.5-12.75q-.6.647-1.245,1.245l1.693,7.4L30.406-.149,26.4-6.6q-.224,0-.448.012t-.448.012q-.224,0-.448-.012T24.6-6.6L20.594-.149,11.057-4.109l1.693-7.4Q12.1-12.1,11.5-12.75l-7.4,1.693L.149-20.594,6.6-24.6q0-.224-.012-.448T6.574-25.5q0-.224.012-.448T6.6-26.4L.149-30.406l3.959-9.538,7.4,1.693q.6-.647,1.245-1.245l-1.693-7.4,9.538-3.959L24.6-44.4q.224,0,.448-.012t.448-.012q.224,0,.448.012t.448.012l4.009-6.45,9.538,3.959L38.25-39.5q.647.6,1.245,1.245l7.4-1.693,3.959,9.538Zm-2.914,3.237q.05-.6.1-1.183t.05-1.183q0-.573-.05-1.17t-.1-1.17l5.877-3.661-2.142-5.18-6.749,1.569a21.637,21.637,0,0,0-1.581-1.743q-.809-.8-1.756-1.594l1.569-6.749-5.18-2.142-3.686,5.877-1.17-.1q-.6-.05-1.17-.05-.6,0-1.183.05l-1.183.1-3.661-5.877-5.18,2.142,1.569,6.749a21.637,21.637,0,0,0-1.743,1.581q-.8.809-1.594,1.756L5.777-36.706l-2.142,5.18,5.877,3.686q-.05.6-.1,1.183t-.05,1.183q0,.573.05,1.17t.1,1.17L3.636-19.474l2.142,5.18,6.749-1.569a21.637,21.637,0,0,0,1.581,1.743q.809.8,1.756,1.594L14.294-5.777l5.18,2.142,3.686-5.877,1.17.1q.6.05,1.17.05.6,0,1.183-.05l1.183-.1,3.661,5.877,5.18-2.142-1.569-6.749a21.637,21.637,0,0,0,1.743-1.581q.8-.809,1.594-1.756l6.749,1.569,2.142-5.18ZM25.5-34.863a9.124,9.124,0,0,1,3.648.735,9.448,9.448,0,0,1,2.976,2,9.448,9.448,0,0,1,2,2.976,9.124,9.124,0,0,1,.735,3.648,9.124,9.124,0,0,1-.735,3.648,9.448,9.448,0,0,1-2,2.976,9.448,9.448,0,0,1-2.976,2,9.124,9.124,0,0,1-3.648.735,9.124,9.124,0,0,1-3.648-.735,9.448,9.448,0,0,1-2.976-2,9.448,9.448,0,0,1-2-2.976,9.124,9.124,0,0,1-.735-3.648,9.124,9.124,0,0,1,.735-3.648,9.448,9.448,0,0,1,2-2.976,9.448,9.448,0,0,1,2.976-2A9.124,9.124,0,0,1,25.5-34.863Zm0,15.938a6.461,6.461,0,0,0,2.565-.51,6.585,6.585,0,0,0,2.092-1.407,6.585,6.585,0,0,0,1.407-2.092,6.461,6.461,0,0,0,.51-2.565,6.461,6.461,0,0,0-.51-2.565,6.585,6.585,0,0,0-1.407-2.092,6.585,6.585,0,0,0-2.092-1.407,6.461,6.461,0,0,0-2.565-.51,6.461,6.461,0,0,0-2.565.51,6.585,6.585,0,0,0-2.092,1.407,6.585,6.585,0,0,0-1.407,2.092,6.461,6.461,0,0,0-.51,2.565,6.461,6.461,0,0,0,.51,2.565,6.585,6.585,0,0,0,1.407,2.092,6.585,6.585,0,0,0,2.092,1.407A6.461,6.461,0,0,0,25.5-18.926Z" transform="translate(1295.8 -165)"/>
    <rect id="Rectangle_1555" data-name="Rectangle 1555" class="cls-3" width="64" height="64" transform="translate(1283 -228)"/>
  </g>
</svg>
