<svg xmlns="http://www.w3.org/2000/svg" width="64.002" height="64" viewBox="0 0 64.002 64">
  <defs>
    <style>
      .cls-1 {
        fill: #a0d71e;
      }

      .cls-2 {
        fill: #fff;
      }

      .cls-3 {
        fill: none;
      }
    </style>
  </defs>
  <g id="vagas" transform="translate(-1283 228)">
    <circle id="Ellipse_3" data-name="Ellipse 3" class="cls-1" cx="25.6" cy="25.6" r="25.6" transform="translate(1283 -228)"/>
    <path id="Path_4428" data-name="Path 4428" class="cls-2" d="M36.557-22.636a12.042,12.042,0,0,0-2.216,2.391A18.668,18.668,0,0,0,30.02-21.8a20.62,20.62,0,0,0-4.57-.51,19.367,19.367,0,0,0-5.142.672,19.035,19.035,0,0,0-4.57,1.905,18.793,18.793,0,0,0-3.847,2.963,18.309,18.309,0,0,0-2.951,3.86A19.531,19.531,0,0,0,7.047-8.317a19.41,19.41,0,0,0-.672,5.13H3.188a22.674,22.674,0,0,1,1.083-7,22.249,22.249,0,0,1,3.075-6.151,21.842,21.842,0,0,1,4.819-4.881,21.678,21.678,0,0,1,6.313-3.212,12.785,12.785,0,0,1-2.4-2.067,12.788,12.788,0,0,1-1.793-2.54,13.145,13.145,0,0,1-1.133-2.889,12.316,12.316,0,0,1-.4-3.138,12.276,12.276,0,0,1,1.009-4.956A13.007,13.007,0,0,1,16.5-44.065,13.007,13.007,0,0,1,20.544-46.8,12.276,12.276,0,0,1,25.5-47.812,12.276,12.276,0,0,1,30.456-46.8,13.007,13.007,0,0,1,34.5-44.065a13.007,13.007,0,0,1,2.739,4.047,12.276,12.276,0,0,1,1.009,4.956,12.46,12.46,0,0,1-.4,3.15,13.083,13.083,0,0,1-1.133,2.9,12.517,12.517,0,0,1-1.805,2.54A13.132,13.132,0,0,1,32.5-24.4q1.071.349,2.079.784A20.9,20.9,0,0,1,36.557-22.636ZM15.938-35.062a9.292,9.292,0,0,0,.747,3.723A9.677,9.677,0,0,0,18.739-28.3a9.677,9.677,0,0,0,3.038,2.054A9.292,9.292,0,0,0,25.5-25.5a9.319,9.319,0,0,0,3.71-.747A9.638,9.638,0,0,0,32.261-28.3a9.677,9.677,0,0,0,2.054-3.038,9.292,9.292,0,0,0,.747-3.723,9.319,9.319,0,0,0-.747-3.71,9.638,9.638,0,0,0-2.054-3.051,9.638,9.638,0,0,0-3.051-2.054,9.319,9.319,0,0,0-3.71-.747,9.292,9.292,0,0,0-3.723.747,9.677,9.677,0,0,0-3.038,2.054,9.638,9.638,0,0,0-2.054,3.051A9.319,9.319,0,0,0,15.938-35.062ZM43.081-22.337a7.762,7.762,0,0,1,3.113.635,8.132,8.132,0,0,1,2.552,1.718,8.171,8.171,0,0,1,1.718,2.54,7.674,7.674,0,0,1,.635,3.1,7.674,7.674,0,0,1-.635,3.1A8.171,8.171,0,0,1,48.746-8.7a8.132,8.132,0,0,1-2.552,1.718,7.762,7.762,0,0,1-3.113.635,7.708,7.708,0,0,1-4.408-1.345L31.4-.423A1.532,1.532,0,0,1,30.281.05a1.532,1.532,0,0,1-1.121-.473,1.532,1.532,0,0,1-.473-1.121,1.532,1.532,0,0,1,.473-1.121l7.271-7.271a7.708,7.708,0,0,1-1.345-4.408,7.674,7.674,0,0,1,.635-3.1,8.171,8.171,0,0,1,1.718-2.54,8.171,8.171,0,0,1,2.54-1.718A7.674,7.674,0,0,1,43.081-22.337Zm0,12.8a4.691,4.691,0,0,0,1.868-.374,4.842,4.842,0,0,0,1.531-1.033,5.019,5.019,0,0,0,1.046-1.531,4.56,4.56,0,0,0,.386-1.868,4.56,4.56,0,0,0-.386-1.868,5.134,5.134,0,0,0-1.033-1.531,4.662,4.662,0,0,0-1.531-1.033,4.781,4.781,0,0,0-1.88-.374,4.56,4.56,0,0,0-1.868.386,5.134,5.134,0,0,0-1.531,1.033,4.7,4.7,0,0,0-1.033,1.519,4.691,4.691,0,0,0-.374,1.868,4.691,4.691,0,0,0,.374,1.868,4.842,4.842,0,0,0,1.033,1.531,4.842,4.842,0,0,0,1.531,1.033A4.691,4.691,0,0,0,43.081-9.538Z" transform="translate(1295.903 -165)"/>
    <rect id="Rectangle_1544" data-name="Rectangle 1544" class="cls-3" width="64" height="64" transform="translate(1283 -228)"/>
  </g>
</svg>
